{"title":"Vicky Donor - 2012 - DVDScr - X264 - DrC - D!D","uid":7269560,"size":1769852686,"categoryP":"video","categoryS":"movies","magnet":"?xt=urn:btih:fd1d2b6b71f71125fe74069eb56494765de6f1ae&amp;dn=Vicky+Donor+-+2012+-+DVDScr+-+X264+-+DrC+-+D%21D&amp;tr=udp%3A%2F%2Ftracker.openbittorrent.com%3A80&amp;tr=udp%3A%2F%2Fopen.demonii.com%3A1337&amp;tr=udp%3A%2F%2Ftracker.coppersurfer.tk%3A6969&amp;tr=udp%3A%2F%2Fexodus.desync.com%3A6969","seeders":1,"leechers":0,"uploader":"arsenal_rocks","files":1,"time":1337009064,"description":" &lt;a href=&quot;http://img535.imageshack.us/img535/1311/pbanner2.jpg&quot; rel=&quot;nofollow&quot; target=&quot;_NEW&quot;&gt;http://img535.imageshack.us/img535/1311/pbanner2.jpg&lt;/a&gt;\n\nVicky Donor - 2012 - DVDScr - 720p - x264 - DrC - D!D\n &lt;a href=&quot;\nhttp://i.imgur.com/NJX5V.jpg&quot; rel=&quot;nofollow&quot; target=&quot;_NEW&quot;&gt;\nhttp://i.imgur.com/NJX5V.jpg&lt;/a&gt;\n\nRip Specs :\n\nGeneral\n\nFormat                                   : Matroska\nFormat version                           : Version 2\nFile size                                : 1.65 GiB\nDuration                                 : 2h 1mn\nOverall bit rate mode                    : Variable\nOverall bit rate                         : 1 949 Kbps\n\n\nVideo\n\nFormat                                   : AVC\nFormat/Info                              : Advanced Video Codec\nFormat profile                           : &lt;a class=&quot;__cf_email__&quot; href=&quot;/cdn-cgi/l/email-protection&quot; data-cfemail=&quot;256d4c424d6569110b14&quot;&gt;[email&amp;#160;protected]&lt;/a&gt;&lt;script cf-hash='f9e31' type=&quot;text/javascript&quot;&gt;\n/* &lt;![CDATA[ */!function(){try{var t=&quot;currentScript&quot;in document?document.currentScript:function(){for(var t=document.getElementsByTagName(&quot;script&quot;),e=t.length;e--;)if(t[e].getAttribute(&quot;cf-hash&quot;))return t[e]}();if(t&amp;&amp;t.previousSibling){var e,r,n,i,c=t.previousSibling,a=c.getAttribute(&quot;data-cfemail&quot;);if(a){for(e=&quot;&quot;,r=parseInt(a.substr(0,2),16),n=2;a.length-n;n+=2)i=parseInt(a.substr(n,2),16)^r,e+=String.fromCharCode(i);e=document.createTextNode(e),c.parentNode.replaceChild(e,c)}}}catch(u){}}();/* ]]&gt; */&lt;/script&gt;\nFormat settings, CABAC                   : Yes\nFormat settings, ReFrames                : 3 frames\nCodec ID                                 : V_MPEG4/ISO/AVC\nDuration                                 : 2h 1mn\nBit rate mode                            : Variable\nBit rate                                 : 1 499 Kbps\nMaximum bit rate                         : 40.0 Mbps\nWidth                                    : 1 280 pixels\nHeight                                   : 544 pixels\nDisplay aspect ratio                     : 2.35:1\nFrame rate                               : 23.976 fps\nColor space                              : YUV\nChroma subsampling                       : 4:2:0\nBit depth                                : 8 bits\nScan type                                : Progressive\nBits/(Pixel*Frame)                       : 0.090\nStream size                              : 1.24 GiB (75%)\n\n\nAudio\n\nFormat                                   : AC-3\nFormat/Info                              : Audio Coding 3\nMode extension                           : CM (complete main)\nFormat settings, Endianness              : Big\nCodec ID                                 : A_AC3\nDuration                                 : 2h 1mn\nBit rate mode                            : Constant\nBit rate                                 : 448 Kbps\nChannel(s)                               : 6 channels\nChannel positions                        : Front: L C R, Side: L R, LFE\nSampling rate                            : 48.0 KHz\nBit depth                                : 16 bits\nCompression mode                         : Lossy\nStream size                              : 388 MiB (23%)\n\nScreenshots\n &lt;a href=&quot;\nhttp://i.imgur.com/wseSj.png&quot; rel=&quot;nofollow&quot; target=&quot;_NEW&quot;&gt;\nhttp://i.imgur.com/wseSj.png&lt;/a&gt;\n &lt;a href=&quot;\nhttp://i.imgur.com/c8PNx.png&quot; rel=&quot;nofollow&quot; target=&quot;_NEW&quot;&gt;\nhttp://i.imgur.com/c8PNx.png&lt;/a&gt;\n &lt;a href=&quot;\nhttp://i.imgur.com/VcHXJ.jpg&quot; rel=&quot;nofollow&quot; target=&quot;_NEW&quot;&gt;\nhttp://i.imgur.com/VcHXJ.jpg&lt;/a&gt;\n &lt;a href=&quot;\nhttp://i.imgur.com/fpCvG.jpg&quot; rel=&quot;nofollow&quot; target=&quot;_NEW&quot;&gt;\nhttp://i.imgur.com/fpCvG.jpg&lt;/a&gt;\n &lt;a href=&quot;\nhttp://i.imgur.com/vLzJH.png&quot; rel=&quot;nofollow&quot; target=&quot;_NEW&quot;&gt;\nhttp://i.imgur.com/vLzJH.png&lt;/a&gt;\n &lt;a href=&quot;\nhttp://i.imgur.com/lpGAS.jpg&quot; rel=&quot;nofollow&quot; target=&quot;_NEW&quot;&gt;\nhttp://i.imgur.com/lpGAS.jpg&lt;/a&gt;\n\n\nDon't forget to leave your reply.\nDrC - Always with you !","torrent":{"xt":"urn:btih:fd1d2b6b71f71125fe74069eb56494765de6f1ae","amp;dn":"Vicky+Donor+-+2012+-+DVDScr+-+X264+-+DrC+-+D%21D","amp;tr":["udp%3A%2F%2Ftracker.openbittorrent.com%3A80","udp%3A%2F%2Fopen.demonii.com%3A1337","udp%3A%2F%2Ftracker.coppersurfer.tk%3A6969","udp%3A%2F%2Fexodus.desync.com%3A6969"],"infoHash":"fd1d2b6b71f71125fe74069eb56494765de6f1ae","infoHashBuffer":{"type":"Buffer","data":[253,29,43,107,113,247,17,37,254,116,6,158,181,100,148,118,93,230,241,174]},"announce":[],"urlList":[]}}